<?xml version="1.0" encoding="utf-8"?>
<!-- Generator: Adobe Illustrator 21.0.0, SVG Export Plug-In . SVG Version: 6.00 Build 0)  -->
<svg version="1.1" id="idea-emoji" xmlns="http://www.w3.org/2000/svg" xmlns:xlink="http://www.w3.org/1999/xlink" x="0px" y="0px"
	 viewBox="0 0 512 512" style="enable-background:new 0 0 512 512;" xml:space="preserve">
<style type="text/css">
	.st0{fill:#09C989;}
	.st1{fill:#4C241D;}
	.st2{fill:#FFCE56;}
	.st3{fill:#6B4F5B;}
	.st4{fill:#B5A19C;}
	.st5{fill:#FFFFFF;}
</style>
<circle class="st0" cx="230.4" cy="202.8" r="146.8"/>
<g>
	<circle class="st1" cx="104.1" cy="219.9" r="6.8"/>
	<path class="st1" d="M195.7,79.3c-1.7,0-3.5-0.7-4.8-2L171.5,58c-2.7-2.7-2.7-7,0-9.7c2.7-2.7,7-2.7,9.7,0l19.3,19.3
		c2.7,2.7,2.7,7,0,9.7C199.2,78.7,197.4,79.3,195.7,79.3L195.7,79.3z"/>
	<path class="st1" d="M176.4,79.3c-1.7,0-3.5-0.7-4.8-2c-2.7-2.7-2.7-7,0-9.7l19.3-19.3c2.7-2.7,7-2.7,9.7,0c2.7,2.7,2.7,7,0,9.7
		l-19.3,19.3C179.9,78.7,178.1,79.3,176.4,79.3L176.4,79.3z"/>
	<path class="st1" d="M117.8,151.6c-11.3,0-20.5-9.2-20.5-20.5s9.2-20.5,20.5-20.5s20.5,9.2,20.5,20.5S129.1,151.6,117.8,151.6z
		 M117.8,124.3c-3.8,0-6.8,3.1-6.8,6.8s3.1,6.8,6.8,6.8s6.8-3.1,6.8-6.8S121.5,124.3,117.8,124.3z"/>
</g>
<g>
	<path class="st2" d="M421.5,216.5c0-74.5-64.5-133.9-140.7-125.5c-59.7,6.6-107.2,56.1-111.6,116c-2.9,40.2,13,76.7,39.8,101.7
		c15.3,14.3,24.7,33.7,24.7,54.6v10.9c0,9,7.3,16.3,16.3,16.3h90.3c9,0,16.3-7.3,16.3-16.3v-12.7c0-19.9,9.1-38.5,23.8-51.9
		C405.7,286.5,421.5,253.3,421.5,216.5L421.5,216.5z"/>
	<path class="st1" d="M340.4,397.4h-90.3c-12.7,0-23.1-10.4-23.1-23.1v-10.9c0-18.4-8-36-22.5-49.6c-29.6-27.6-44.9-66.7-42-107.2
		c4.6-62.8,55.1-115.4,117.6-122.3c38.5-4.2,75.4,7.5,103.9,33.1c28.2,25.2,44.3,61.4,44.3,99.2c0,37.2-15.8,73-43.3,98.2
		c-13.9,12.7-21.6,29.4-21.6,46.9v12.7C363.5,387,353.2,397.4,340.4,397.4L340.4,397.4z M295.4,97c-4.6,0-9.2,0.3-13.8,0.8
		c-56,6.2-101.4,53.4-105.5,109.7c-2.7,36.4,11.1,71.5,37.7,96.3c17.3,16.2,26.9,37.3,26.9,59.6v10.9c0,5.2,4.2,9.5,9.5,9.5h90.3
		c5.2,0,9.5-4.2,9.5-9.5v-12.7c0-21.1,9.5-41.9,26-57c24.7-22.6,38.9-54.7,38.9-88.1c0-33.9-14.5-66.4-39.8-89
		C352.7,107.5,324.9,97,295.4,97L295.4,97z"/>
</g>
<g>
	<path class="st3" d="M332.8,390.5h-75.1c-5.7,0-10.2,4.6-10.2,10.2s4.6,10.2,10.2,10.2h75.1c5.7,0,10.2-4.6,10.2-10.2
		S338.5,390.5,332.8,390.5z"/>
	<path class="st1" d="M332.8,417.8h-75.1c-9.4,0-17.1-7.7-17.1-17.1c0-9.4,7.7-17.1,17.1-17.1h75.1c9.4,0,17.1,7.7,17.1,17.1
		C349.9,410.2,342.2,417.8,332.8,417.8z M257.7,397.4c-1.9,0-3.4,1.5-3.4,3.4c0,1.9,1.5,3.4,3.4,3.4h75.1c1.9,0,3.4-1.5,3.4-3.4
		c0-1.9-1.5-3.4-3.4-3.4H257.7z"/>
</g>
<g>
	<path class="st3" d="M332.8,411h-75.1c-5.7,0-10.2,4.6-10.2,10.2s4.6,10.2,10.2,10.2h75.1c5.7,0,10.2-4.6,10.2-10.2
		S338.5,411,332.8,411z"/>
	<path class="st1" d="M332.8,438.3h-75.1c-9.4,0-17.1-7.7-17.1-17.1c0-9.4,7.7-17.1,17.1-17.1h75.1c9.4,0,17.1,7.7,17.1,17.1
		C349.9,430.7,342.2,438.3,332.8,438.3z M257.7,417.8c-1.9,0-3.4,1.5-3.4,3.4c0,1.9,1.5,3.4,3.4,3.4h75.1c1.9,0,3.4-1.5,3.4-3.4
		c0-1.9-1.5-3.4-3.4-3.4H257.7z"/>
</g>
<g>
	<path class="st4" d="M316,458.8h-41.5c-7.4,0-13.4-6-13.4-13.4v-13.9h68.3v13.9C329.4,452.8,323.4,458.8,316,458.8z"/>
	<path class="st1" d="M316,465.6h-41.5c-11.1,0-20.2-9.1-20.2-20.2v-13.9c0-3.8,3.1-6.8,6.8-6.8h68.3c3.8,0,6.8,3.1,6.8,6.8v13.9
		C336.2,456.6,327.2,465.6,316,465.6z M267.9,438.3v7.1c0,3.6,2.9,6.5,6.5,6.5H316c3.6,0,6.5-2.9,6.5-6.5v-7.1H267.9z"/>
</g>
<g>
	<circle class="st5" cx="336.2" cy="233.5" r="27.3"/>
	<path class="st1" d="M336.2,267.7c-18.8,0-34.1-15.3-34.1-34.1s15.3-34.1,34.1-34.1s34.1,15.3,34.1,34.1S355,267.7,336.2,267.7z
		 M336.2,213c-11.3,0-20.5,9.2-20.5,20.5c0,11.3,9.2,20.5,20.5,20.5c11.3,0,20.5-9.2,20.5-20.5C356.7,222.2,347.5,213,336.2,213z"/>
</g>
<g>
	<circle class="st5" cx="254.3" cy="233.5" r="27.3"/>
	<path class="st1" d="M254.3,267.7c-18.8,0-34.1-15.3-34.1-34.1s15.3-34.1,34.1-34.1s34.1,15.3,34.1,34.1S273.1,267.7,254.3,267.7z
		 M254.3,213c-11.3,0-20.5,9.2-20.5,20.5c0,11.3,9.2,20.5,20.5,20.5c11.3,0,20.5-9.2,20.5-20.5C274.8,222.2,265.6,213,254.3,213z"/>
</g>
<g>
	<path class="st5" d="M356.7,213h41l20.5,6.8"/>
	<path class="st1" d="M418.1,226.7c-0.7,0-1.4-0.1-2.2-0.4l-19.4-6.5h-39.9c-3.8,0-6.8-3.1-6.8-6.8s3.1-6.8,6.8-6.8h41
		c0.7,0,1.5,0.1,2.2,0.4l20.5,6.8c3.6,1.2,5.5,5.1,4.3,8.6C423.7,224.9,421,226.7,418.1,226.7z"/>
</g>
<g>
	<path class="st5" d="M233.8,213h-41l-20.5,6.8"/>
	<path class="st1" d="M172.4,226.7c-2.9,0-5.5-1.8-6.5-4.7c-1.2-3.6,0.7-7.4,4.3-8.6l20.5-6.8c0.7-0.2,1.4-0.4,2.2-0.4h41
		c3.8,0,6.8,3.1,6.8,6.8s-3.1,6.8-6.8,6.8H194l-19.4,6.5C173.8,226.6,173.1,226.7,172.4,226.7z"/>
</g>
<path class="st1" d="M308.9,233.5h-27.3c-3.8,0-6.8-3.1-6.8-6.8s3.1-6.8,6.8-6.8h27.3c3.8,0,6.8,3.1,6.8,6.8
	S312.7,233.5,308.9,233.5z"/>
<circle class="st1" cx="336.2" cy="233.5" r="6.8"/>
<circle class="st1" cx="254.3" cy="233.5" r="6.8"/>
<path class="st1" d="M274.7,303c-5.2,0-8.6,5.8-5.8,10.2c5.5,8.8,15.2,14.6,26.3,14.6c11.1,0,20.8-5.8,26.3-14.6
	c2.8-4.4-0.5-10.2-5.8-10.2H274.7z"/>
<path class="st5" d="M200.5,187.7c-0.9,0-1.7-0.2-2.6-0.5c-3.5-1.4-5.1-5.4-3.7-8.9c4.7-11.5,11.3-22,19.6-31.3
	c2.5-2.8,6.8-3,9.6-0.5c2.8,2.5,3,6.8,0.5,9.6c-7.3,8.1-13,17.3-17.2,27.4C205.7,186.1,203.2,187.7,200.5,187.7L200.5,187.7z"/>
<path class="st5" d="M237.9,141.9c-2.2,0-4.3-1-5.7-3c-2.1-3.1-1.3-7.4,1.8-9.5c7.3-4.9,15.2-9,23.4-12c3.5-1.3,7.5,0.5,8.8,4
	s-0.5,7.5-4,8.8c-7.2,2.6-14.1,6.2-20.5,10.5C240.5,141.5,239.2,141.9,237.9,141.9L237.9,141.9z"/>
</svg>
